<?xml version="1.0" encoding="utf-8"?>
<!-- Generator: Adobe Illustrator 21.1.0, SVG Export Plug-In . SVG Version: 6.00 Build 0)  -->
<svg version="1.1" id="Layer_1" xmlns="http://www.w3.org/2000/svg" xmlns:xlink="http://www.w3.org/1999/xlink" x="0px" y="0px"
	 viewBox="0 0 213 320" style="enable-background:new 0 0 213 320;" xml:space="preserve">
<style type="text/css">
	.st0{fill:url(#SVGID_1_);}
</style>
<g>
	<path d="M148.5,295.5c12-66,54-137,54-137s-42-71-54-137c0,0-43,56-118,3l-3,134l3,134C105.5,239.5,148.5,295.5,148.5,295.5z"/>
	<g>
		
			<image style="overflow:visible;opacity:0.13;" width="214" height="315" xlink:href="4192519D0CC214BB.png"  transform="matrix(1 0 0 1 15 8)">
		</image>
		<g>
			<linearGradient id="SVGID_1_" gradientUnits="userSpaceOnUse" x1="25.9996" y1="158.6143" x2="204.2428" y2="158.6143">
				<stop  offset="0" style="stop-color:#999999"/>
				<stop  offset="1" style="stop-color:#E6E6E6"/>
			</linearGradient>
			<path class="st0" d="M152.8,296.7c6-32.2,17.6-63.2,31.3-92.8c6.8-14.6,14-29.2,22.2-43.1c0.8-1.4,0.8-3.2,0-4.5
				c-8.2-13.9-15.4-28.5-22.2-43.1c-13.7-29.6-25.4-60.6-31.3-92.8c-0.6-3.1-5.5-4.6-7.5-2c-15.7,20.4-44.5,28-68.9,22.7
				C60.5,37.6,46,29.9,32.8,20.6c-2.9-2-6.7,0.7-6.8,3.9c-0.9,39.2-1.8,78.5-2.6,117.7c-0.7,31.7,0.7,63.5,1.4,95.2
				c0.4,18.4,0.8,36.7,1.2,55.1c0.1,3.2,3.9,5.9,6.8,3.9c20.3-14.2,44.8-25.3,70.1-21.5c13.6,2.1,26.6,8.4,36.8,17.7
				c2,1.9,4,3.8,5.7,6c3.5,4.6,9.9-1.8,6.4-6.4c-17.5-22.7-50-30.8-77-25.2c-16.9,3.5-32.4,11.7-46.4,21.5c2.3,1.3,4.5,2.6,6.8,3.9
				c-0.9-39.2-1.8-78.5-2.6-117.7c-0.7-31.7,0.7-63.5,1.4-95.2c0.4-18.4,0.8-36.7,1.2-55.1c-2.3,1.3-4.5,2.6-6.8,3.9
				C50,43.6,76.1,54.7,103.2,51c15.5-2.1,30.1-9.1,41.8-19.5c2.4-2.1,4.8-4.4,6.7-6.9c-2.5-0.7-5-1.3-7.5-2
				c6,32.5,17.9,63.8,31.7,93.7c6.9,15.1,14.3,30.1,22.8,44.4c0-1.5,0-3,0-4.5c-8.4,14.3-15.9,29.3-22.8,44.4
				c-13.8,29.9-25.6,61.2-31.7,93.7C143.1,300,151.8,302.4,152.8,296.7z"/>
		</g>
	</g>
</g>
</svg>
