<?xml version="1.0" encoding="utf-8"?>
<!-- Generator: Adobe Illustrator 21.1.0, SVG Export Plug-In . SVG Version: 6.00 Build 0)  -->
<svg version="1.1" id="Layer_1" xmlns="http://www.w3.org/2000/svg" xmlns:xlink="http://www.w3.org/1999/xlink" x="0px" y="0px"
	 viewBox="0 0 386 279" style="enable-background:new 0 0 386 279;" xml:space="preserve">
<style type="text/css">
	.st0{fill:url(#SVGID_1_);}
	.st1{fill:url(#SVGID_2_);}
</style>
<g>
	
		<image style="overflow:visible;opacity:0.13;" width="388" height="283" xlink:href="1FB154E24AFB9395.png"  transform="matrix(1 0 0 1 3 7)">
	</image>
	<g>
		<path d="M363,62c0,0-42-4-103-41c0,0-27,41-70,41s-70-41-70-41C59,58,17,62,17,62c23,41,10,130,10,130c75,9,163,69,163,69
			s88-60,163-69C353,192,340,103,363,62z"/>
		<g>
			<linearGradient id="SVGID_1_" gradientUnits="userSpaceOnUse" x1="13.7532" y1="141.0133" x2="366.2468" y2="141.0133">
				<stop  offset="0" style="stop-color:#999999"/>
				<stop  offset="1" style="stop-color:#E6E6E6"/>
			</linearGradient>
			<path class="st0" d="M363,56c-2-0.2,0.9,0.2-0.6-0.1c-2-0.3-3.9-0.6-5.9-1c-6.9-1.4-13.8-3.2-20.6-5.3c-25.7-8-50-19.9-72.9-33.8
				c-2.9-1.7-6.4-0.5-8.2,2.2c-0.2,0.3-0.4,0.6-0.6,0.9c-0.8,1.1-1.6,2.1-1.6,2.1c-2.5,3.2-5.3,6.3-8.1,9.2
				c-8.5,8.7-18.6,16.2-29.9,20.8c-27.2,11.1-55.4,1.6-76-17.9c-3.7-3.5-7.2-7.3-10.4-11.3c-1.3-1.6-0.6-0.8-2-2.6
				c-0.3-0.5-0.7-0.9-1-1.4c-1.8-2.7-5.3-3.9-8.2-2.2C94,29.7,69.7,41.6,44,49.6c-6.8,2.1-13.6,3.9-20.6,5.3c-1.9,0.4-3.8,0.7-5.7,1
				C16,56.2,19.1,55.8,17,56c-4.5,0.4-7.5,4.8-5.2,9c9.8,17.8,11.8,39.6,12.6,59.6c0.7,18.5-0.1,37.1-2,55.5c-0.3,2.9-0.6,5.7-1,8.5
				c-0.1,0.8-0.4,3.1-0.1,0.9c0,0.3-0.1,0.6-0.1,0.9c-0.6,4.2,1.6,7.1,5.8,7.6c29.9,3.7,58.9,14.5,86.1,27.1
				c21.4,9.9,42.3,21.2,62.3,33.7c3.9,2.4,7.8,4.9,11.6,7.5c1.7,1.1,4.4,1.1,6.1,0c33.8-23,71.5-42.4,110.1-55.8
				c16.2-5.6,32.8-10.2,49.9-12.3c4.2-0.5,6.4-3.4,5.8-7.6c-0.3-1.8,0.2,1.3-0.1-1c-0.3-2.3-0.6-4.6-0.8-6.9
				c-0.8-7.5-1.4-15.1-1.8-22.6c-1.2-20.9-1.3-42.2,2.2-62.9c1.8-11,4.6-22.1,10-31.9c3.7-6.8-6.6-12.8-10.4-6.1
				c-10.6,19.2-13.2,42.2-14.2,63.7c-0.9,19.4,0,38.8,2,58.1c0.4,4.3,0.9,8.6,1.6,12.8c1.9-2.5,3.9-5.1,5.8-7.6
				c-31,3.8-60.6,14.4-88.9,27.2c-22.4,10.1-44.1,21.8-64.9,34.8c-4.1,2.5-8.2,5.1-12.2,7.8c2,0,4,0,6.1,0
				C158,231.9,118.7,212,78.6,198.3c-16.8-5.8-34-10.1-51.6-12.3c1.9,2.5,3.9,5.1,5.8,7.6c4.8-33.1,6.2-68.1,0.4-101.1
				c-2-11.6-5.3-23.2-11-33.6c-1.7,3-3.5,6-5.2,9c10.2-1,20.4-3.8,30.2-6.8c26.6-8.3,52-20.6,75.8-35c-2.7-0.7-5.5-1.4-8.2-2.2
				c11.3,17.1,29,31.4,48,38.8c30.6,11.9,62.7,1.3,86-20.2c6-5.5,11.8-11.8,16.3-18.6c-2.7,0.7-5.5,1.4-8.2,2.2
				c23.8,14.4,49.2,26.7,75.8,35c9.8,3,20,5.8,30.2,6.8C370.7,68.7,370.6,56.7,363,56z"/>
		</g>
		<g>
			<linearGradient id="SVGID_2_" gradientUnits="userSpaceOnUse" x1="13.7532" y1="141.0133" x2="366.2468" y2="141.0133">
				<stop  offset="0" style="stop-color:#999999"/>
				<stop  offset="1" style="stop-color:#E6E6E6"/>
			</linearGradient>
			<path class="st1" d="M363,56c-2-0.2,0.9,0.2-0.6-0.1c-2-0.3-3.9-0.6-5.9-1c-6.9-1.4-13.8-3.2-20.6-5.3c-25.7-8-50-19.9-72.9-33.8
				c-2.9-1.7-6.4-0.5-8.2,2.2c-0.2,0.3-0.4,0.6-0.6,0.9c-0.8,1.1-1.6,2.1-1.6,2.1c-2.5,3.2-5.3,6.3-8.1,9.2
				c-8.5,8.7-18.6,16.2-29.9,20.8c-27.2,11.1-55.4,1.6-76-17.9c-3.7-3.5-7.2-7.3-10.4-11.3c-1.3-1.6-0.6-0.8-2-2.6
				c-0.3-0.5-0.7-0.9-1-1.4c-1.8-2.7-5.3-3.9-8.2-2.2C94,29.7,69.7,41.6,44,49.6c-6.8,2.1-13.6,3.9-20.6,5.3c-1.9,0.4-3.8,0.7-5.7,1
				C16,56.2,19.1,55.8,17,56c-4.5,0.4-7.5,4.8-5.2,9c9.8,17.8,11.8,39.6,12.6,59.6c0.7,18.5-0.1,37.1-2,55.5c-0.3,2.9-0.6,5.7-1,8.5
				c-0.1,0.8-0.4,3.1-0.1,0.9c0,0.3-0.1,0.6-0.1,0.9c-0.6,4.2,1.6,7.1,5.8,7.6c29.9,3.7,58.9,14.5,86.1,27.1
				c21.4,9.9,42.3,21.2,62.3,33.7c3.9,2.4,7.8,4.9,11.6,7.5c1.7,1.1,4.4,1.1,6.1,0c33.8-23,71.5-42.4,110.1-55.8
				c16.2-5.6,32.8-10.2,49.9-12.3c4.2-0.5,6.4-3.4,5.8-7.6c-0.3-1.8,0.2,1.3-0.1-1c-0.3-2.3-0.6-4.6-0.8-6.9
				c-0.8-7.5-1.4-15.1-1.8-22.6c-1.2-20.9-1.3-42.2,2.2-62.9c1.8-11,4.6-22.1,10-31.9c3.7-6.8-6.6-12.8-10.4-6.1
				c-10.6,19.2-13.2,42.2-14.2,63.7c-0.9,19.4,0,38.8,2,58.1c0.4,4.3,0.9,8.6,1.6,12.8c1.9-2.5,3.9-5.1,5.8-7.6
				c-31,3.8-60.6,14.4-88.9,27.2c-22.4,10.1-44.1,21.8-64.9,34.8c-4.1,2.5-8.2,5.1-12.2,7.8c2,0,4,0,6.1,0
				C158,231.9,118.7,212,78.6,198.3c-16.8-5.8-34-10.1-51.6-12.3c1.9,2.5,3.9,5.1,5.8,7.6c4.8-33.1,6.2-68.1,0.4-101.1
				c-2-11.6-5.3-23.2-11-33.6c-1.7,3-3.5,6-5.2,9c10.2-1,20.4-3.8,30.2-6.8c26.6-8.3,52-20.6,75.8-35c-2.7-0.7-5.5-1.4-8.2-2.2
				c11.3,17.1,29,31.4,48,38.8c30.6,11.9,62.7,1.3,86-20.2c6-5.5,11.8-11.8,16.3-18.6c-2.7,0.7-5.5,1.4-8.2,2.2
				c23.8,14.4,49.2,26.7,75.8,35c9.8,3,20,5.8,30.2,6.8C370.7,68.7,370.6,56.7,363,56z"/>
		</g>
	</g>
</g>
</svg>
