<?xml version="1.0" encoding="utf-8"?>
<!-- Generator: Adobe Illustrator 21.1.0, SVG Export Plug-In . SVG Version: 6.00 Build 0)  -->
<svg version="1.1" id="Layer_2" xmlns="http://www.w3.org/2000/svg" xmlns:xlink="http://www.w3.org/1999/xlink" x="0px" y="0px"
	 viewBox="0 0 405 714" style="enable-background:new 0 0 405 714;" xml:space="preserve">
<style type="text/css">
	.st0{fill:#FFFFFF;}
</style>
<path class="st0" d="M359,173c-12,110-27,157-27,157l-18-9c-9,0-34-220-34-220c-6,93-26,208-26,208l-18-3c-17-3-33-267-33-267
	s-16,264-33,267l-18,3c0,0-20-115-26-208c0,0-25,220-34,220l-18,9c0,0-15-47-27-157c0,0-20,155-20,189c0,0,131-58,176,309
	c45-367,176-309,176-309C379,328,359,173,359,173z"/>
</svg>
